<mxfile host="app.diagrams.net" agent="Mozilla/5.0 (Windows NT 10.0; Win64; x64) AppleWebKit/537.36 (KHTML, like Gecko) Chrome/133.0.0.0 Safari/537.36 OPR/118.0.0.0" version="27.0.9">
  <diagram name="Página-1" id="SSGQaP6CWcNV6FheJbuD">
    <mxGraphModel grid="1" page="1" gridSize="10" guides="1" tooltips="1" connect="1" arrows="1" fold="1" pageScale="1" pageWidth="827" pageHeight="1169" math="0" shadow="0">
      <root>
        <mxCell id="0" />
        <mxCell id="1" parent="0" />
        <mxCell id="MGQm8jBEoG8g0ZLbulO0-1" value="Usuário" style="shape=umlActor;verticalLabelPosition=bottom;verticalAlign=top;html=1;outlineConnect=0;" vertex="1" parent="1">
          <mxGeometry x="80" y="-705" width="30" height="60" as="geometry" />
        </mxCell>
        <mxCell id="MGQm8jBEoG8g0ZLbulO0-8" style="edgeStyle=orthogonalEdgeStyle;rounded=0;orthogonalLoop=1;jettySize=auto;html=1;exitX=0;exitY=0.5;exitDx=0;exitDy=0;endArrow=none;startFill=0;" edge="1" parent="1" source="MGQm8jBEoG8g0ZLbulO0-4">
          <mxGeometry relative="1" as="geometry">
            <mxPoint x="150" y="-670" as="targetPoint" />
          </mxGeometry>
        </mxCell>
        <mxCell id="MGQm8jBEoG8g0ZLbulO0-4" value="Configurar Nova Batalha" style="ellipse;whiteSpace=wrap;html=1;fillColor=#ffe6cc;strokeColor=#d79b00;" vertex="1" parent="1">
          <mxGeometry x="280" y="-730" width="120" height="50" as="geometry" />
        </mxCell>
        <mxCell id="I0oyDSxSCbBd7wxzQqsA-7" value="Gerenciar Grupo de Personagens" style="ellipse;whiteSpace=wrap;html=1;fillColor=#f8cecc;strokeColor=#b85450;" vertex="1" parent="1">
          <mxGeometry x="310" y="-1010" width="100" height="40" as="geometry" />
        </mxCell>
        <mxCell id="I0oyDSxSCbBd7wxzQqsA-8" value="Gerenciar Personagens" style="ellipse;whiteSpace=wrap;html=1;fillColor=#f8cecc;strokeColor=#b85450;" vertex="1" parent="1">
          <mxGeometry x="484" y="-980" width="101" height="40" as="geometry" />
        </mxCell>
        <mxCell id="tQSJfcyRWeLNkvj2Y9I4-1" style="edgeStyle=orthogonalEdgeStyle;rounded=0;orthogonalLoop=1;jettySize=auto;html=1;exitX=0;exitY=0.5;exitDx=0;exitDy=0;endArrow=none;startFill=0;" edge="1" parent="1" source="I0oyDSxSCbBd7wxzQqsA-9">
          <mxGeometry relative="1" as="geometry">
            <mxPoint x="150" y="-670" as="targetPoint" />
          </mxGeometry>
        </mxCell>
        <mxCell id="I0oyDSxSCbBd7wxzQqsA-9" value="Gerenciar Grupo de Inimigos" style="ellipse;whiteSpace=wrap;html=1;fillColor=#f8cecc;strokeColor=#b85450;" vertex="1" parent="1">
          <mxGeometry x="310" y="-940" width="100" height="40" as="geometry" />
        </mxCell>
        <mxCell id="I0oyDSxSCbBd7wxzQqsA-13" value="Gerenciar Inimigos" style="ellipse;whiteSpace=wrap;html=1;fillColor=#f8cecc;strokeColor=#b85450;" vertex="1" parent="1">
          <mxGeometry x="485" y="-910" width="100" height="40" as="geometry" />
        </mxCell>
        <mxCell id="I0oyDSxSCbBd7wxzQqsA-16" style="edgeStyle=orthogonalEdgeStyle;rounded=0;orthogonalLoop=1;jettySize=auto;html=1;endArrow=none;startFill=0;exitX=0;exitY=0.5;exitDx=0;exitDy=0;" edge="1" parent="1">
          <mxGeometry relative="1" as="geometry">
            <mxPoint x="483.9999999999999" y="-890.03" as="sourcePoint" />
            <mxPoint x="150" y="-670" as="targetPoint" />
            <Array as="points">
              <mxPoint x="150" y="-890.03" />
              <mxPoint x="150" y="-670.03" />
            </Array>
          </mxGeometry>
        </mxCell>
        <mxCell id="kMfSdA79UcX3Tjc2b9ED-4" value="Criar Ficha de Personagem" style="ellipse;whiteSpace=wrap;html=1;fillColor=#d5e8d4;strokeColor=#82b366;" vertex="1" parent="1">
          <mxGeometry x="320" y="-630" width="110" height="50" as="geometry" />
        </mxCell>
        <mxCell id="kMfSdA79UcX3Tjc2b9ED-6" value="Criar Ficha de Inimigo" style="ellipse;whiteSpace=wrap;html=1;fillColor=#d5e8d4;strokeColor=#82b366;" vertex="1" parent="1">
          <mxGeometry x="290" y="-540" width="110" height="50" as="geometry" />
        </mxCell>
        <mxCell id="I0oyDSxSCbBd7wxzQqsA-21" value="Gerenciar Andamento da Batalha" style="ellipse;whiteSpace=wrap;html=1;fillColor=#ffe6cc;strokeColor=#d79b00;" vertex="1" parent="1">
          <mxGeometry x="280" y="-810" width="120" height="50" as="geometry" />
        </mxCell>
        <mxCell id="I0oyDSxSCbBd7wxzQqsA-22" style="rounded=0;orthogonalLoop=1;jettySize=auto;html=1;exitX=0;exitY=0.5;exitDx=0;exitDy=0;endArrow=none;startFill=0;edgeStyle=orthogonalEdgeStyle;" edge="1" parent="1" source="I0oyDSxSCbBd7wxzQqsA-21">
          <mxGeometry relative="1" as="geometry">
            <mxPoint x="150" y="-670" as="targetPoint" />
          </mxGeometry>
        </mxCell>
        <mxCell id="Jm3-XbXnsZgJe2frfgZL-3" value="&lt;font style=&quot;font-size: 20px; color: rgb(77, 77, 77);&quot;&gt;Edição&lt;/font&gt;" style="text;html=1;align=center;verticalAlign=middle;resizable=0;points=[];autosize=1;strokeColor=none;fillColor=none;" vertex="1" parent="1">
          <mxGeometry x="413" y="-1040" width="80" height="40" as="geometry" />
        </mxCell>
        <mxCell id="Jm3-XbXnsZgJe2frfgZL-5" value="&lt;font style=&quot;font-size: 20px; color: rgb(77, 77, 77);&quot;&gt;Ficha&lt;/font&gt;" style="text;html=1;align=center;verticalAlign=middle;resizable=0;points=[];autosize=1;strokeColor=none;fillColor=none;" vertex="1" parent="1">
          <mxGeometry x="210" y="-584" width="70" height="40" as="geometry" />
        </mxCell>
        <mxCell id="Jm3-XbXnsZgJe2frfgZL-9" value="&lt;font style=&quot;font-size: 20px; color: rgb(77, 77, 77);&quot;&gt;Batalha&lt;/font&gt;" style="text;html=1;align=center;verticalAlign=middle;resizable=0;points=[];autosize=1;strokeColor=none;fillColor=none;" vertex="1" parent="1">
          <mxGeometry x="190" y="-840" width="90" height="40" as="geometry" />
        </mxCell>
        <mxCell id="tQSJfcyRWeLNkvj2Y9I4-4" value="" style="endArrow=none;html=1;rounded=0;entryX=0;entryY=0.5;entryDx=0;entryDy=0;edgeStyle=orthogonalEdgeStyle;" edge="1" parent="1" target="I0oyDSxSCbBd7wxzQqsA-7">
          <mxGeometry width="50" height="50" relative="1" as="geometry">
            <mxPoint x="150" y="-670" as="sourcePoint" />
            <mxPoint x="260" y="-1030" as="targetPoint" />
            <Array as="points">
              <mxPoint x="150" y="-990" />
            </Array>
          </mxGeometry>
        </mxCell>
        <mxCell id="tQSJfcyRWeLNkvj2Y9I4-5" value="" style="endArrow=none;html=1;rounded=0;entryX=0;entryY=0.5;entryDx=0;entryDy=0;edgeStyle=orthogonalEdgeStyle;" edge="1" parent="1" target="I0oyDSxSCbBd7wxzQqsA-8">
          <mxGeometry width="50" height="50" relative="1" as="geometry">
            <mxPoint x="150" y="-670" as="sourcePoint" />
            <mxPoint x="110" y="-960" as="targetPoint" />
            <Array as="points">
              <mxPoint x="150" y="-960" />
            </Array>
          </mxGeometry>
        </mxCell>
        <mxCell id="x5VOdRAeu34IrlkWa7Hn-1" value="" style="endArrow=none;html=1;rounded=0;entryX=0;entryY=0.5;entryDx=0;entryDy=0;edgeStyle=orthogonalEdgeStyle;" edge="1" parent="1" target="kMfSdA79UcX3Tjc2b9ED-4">
          <mxGeometry width="50" height="50" relative="1" as="geometry">
            <mxPoint x="150" y="-670" as="sourcePoint" />
            <mxPoint x="210" y="-500" as="targetPoint" />
          </mxGeometry>
        </mxCell>
        <mxCell id="x5VOdRAeu34IrlkWa7Hn-2" value="" style="endArrow=none;html=1;rounded=0;exitX=0;exitY=0.5;exitDx=0;exitDy=0;edgeStyle=orthogonalEdgeStyle;" edge="1" parent="1" source="kMfSdA79UcX3Tjc2b9ED-6">
          <mxGeometry width="50" height="50" relative="1" as="geometry">
            <mxPoint x="130" y="-390" as="sourcePoint" />
            <mxPoint x="150" y="-670" as="targetPoint" />
          </mxGeometry>
        </mxCell>
      </root>
    </mxGraphModel>
  </diagram>
</mxfile>
